<svg xmlns="http://www.w3.org/2000/svg" width="357" height="63" viewBox="0 0 357 63">
  <defs>
    <style>
      .cls-1 {
        fill-rule: evenodd;
      }
    </style>
  </defs>
  <path id="LOaD_GaMe" data-name="LOaD GaMe" class="cls-1" d="M19.5,47.34q-2.281-.72-2.28-3.54V8.88a3.766,3.766,0,0,1,1.2-2.7A4.019,4.019,0,0,1,21.3,5.1h0.54V4.5H0.3V5.1H1.08a3.688,3.688,0,0,1,1.86.48,3.669,3.669,0,0,1,1.98,3.3V42.12a4.3,4.3,0,0,1-.54,1.92,3.647,3.647,0,0,1-3.3,1.86H0.3v0.6a31.273,31.273,0,0,1,6.84.75,32.113,32.113,0,0,1,5.28,1.56q1.92,0.81,3.69,1.71t5.61,2.91q3.839,2.01,8.04,3.99a57.848,57.848,0,0,0,5.58,2.31q2.219,0.75,5.49,1.68a23.366,23.366,0,0,0,4.74.99q1.47,0.059,2.07.06,5.94,0,9-1.68a18.041,18.041,0,0,0,7.56-8.46l-0.48-.42q-2.88,2.579-10.38,2.58-10.62,0-33.84-7.14h0ZM44.34,20.52a19.612,19.612,0,0,1-.66-4.86,9.6,9.6,0,0,1,2.46-6.72,7.643,7.643,0,0,1,6-2.34,8.991,8.991,0,0,1,5.7,2.16,14.056,14.056,0,0,1,4.23,6.54,29.912,29.912,0,0,1,1.53,9.9q0,8.7-3.84,13.92a12.08,12.08,0,0,1-10.23,5.22q-6.39,0-10.23-5.76t-3.84-15.3a39.154,39.154,0,0,1,1.47-10.95,18.382,18.382,0,0,1,3.93-7.65l-0.36-.6a21.7,21.7,0,0,0-13.23,7.23A20.674,20.674,0,0,0,22.2,25.32a19.456,19.456,0,0,0,7.56,15.96q7.56,6.061,19.86,6.06t19.77-6.03A19.648,19.648,0,0,0,76.86,25.2a20.046,20.046,0,0,0-3.48-11.88,25.7,25.7,0,0,0-3.75-4.2A18.174,18.174,0,0,0,65.1,6.09,38.973,38.973,0,0,0,60.15,4.2a15.871,15.871,0,0,0-3.87-.81q-1.32-.03-2.49-0.03a21.048,21.048,0,0,0-3.09.3,11.191,11.191,0,0,0-5.34,2.46,9.676,9.676,0,0,0-3.6,7.8,12.682,12.682,0,0,0,1.86,6.6h0.72ZM114,42.6L94.98,3.06H94.44Q94.2,5.28,91.02,12L77.04,42.66a6.326,6.326,0,0,1-2.25,2.43,5.255,5.255,0,0,1-2.73.81H71.52v0.6H84.9V45.9H84.36a2.642,2.642,0,0,1-1.47-.45,2.141,2.141,0,0,1-.9-1.02,3.04,3.04,0,0,1-.21-1.05,3.716,3.716,0,0,1,.3-1.26l2.4-5.58H97.32l2.34,5.58a4.114,4.114,0,0,1,.3,1.47,2.457,2.457,0,0,1-.66,1.5,2.4,2.4,0,0,1-1.98.81H96.78v0.6h22.74V45.9h-0.48q-3.12,0-5.04-3.3h0ZM91.02,21.54l5.04,12H85.8ZM157.8,40.95q6.358-5.549,6.36-15.45t-6.33-15.45Q151.5,4.5,140.22,4.5H126.3q-7.56,0-12.57,3.24a14.04,14.04,0,0,0-6.21,9.72l0.6,0.24a17.918,17.918,0,0,1,4.44-6.3q3.24-2.88,9.54-3.54V42.12a3.861,3.861,0,0,1-1.17,2.67,3.639,3.639,0,0,1-2.67,1.11h-0.78v0.6h22.74Q151.439,46.5,157.8,40.95ZM134.4,7.62l4.62-.12a9.989,9.989,0,0,1,8.76,4.77q3.18,4.77,3.18,13.23t-3.18,13.23a9.989,9.989,0,0,1-8.76,4.77H134.4V7.62ZM240.96,56.88l-0.12-.6a18.242,18.242,0,0,1-3.9.42,13.613,13.613,0,0,1-3.96-.6q-6.84-2.16-9.96-9.72a18.284,18.284,0,0,1-1.38-6.9V29.76a2.475,2.475,0,0,1,.72-2.04,3.153,3.153,0,0,1,2.22-.72h0.96V26.4H205.38V27h0.9a3.367,3.367,0,0,1,2.31.72,2.432,2.432,0,0,1,.75,2.04v8.16a5.688,5.688,0,0,1-2.19,4.65,9.284,9.284,0,0,1-6,1.77,11.367,11.367,0,0,1-6.93-2.31,14.592,14.592,0,0,1-4.8-6.51,25.862,25.862,0,0,1-1.68-9.66q0-8.64,3.9-13.92a11.846,11.846,0,0,1,9.9-5.28,18.166,18.166,0,0,1,10.23,2.79,13.684,13.684,0,0,1,5.67,8.43h0.54l0.6-11.52a28.7,28.7,0,0,0-4.68-1.32,62.664,62.664,0,0,0-13.2-1.38q-11.76,0-18.96,5.97a19.517,19.517,0,0,0-7.2,15.81,19.861,19.861,0,0,0,7.05,15.87q7.05,6.03,18.39,6.03a36.834,36.834,0,0,0,10.98-1.62,21.531,21.531,0,0,0,16.92,13.32,23.2,23.2,0,0,0,2.88.18,25.708,25.708,0,0,0,10.2-2.34h0ZM262.8,42.6L243.78,3.06h-0.54Q243,5.28,239.82,12L225.84,42.66a6.326,6.326,0,0,1-2.25,2.43,5.254,5.254,0,0,1-2.73.81h-0.54v0.6H233.7V45.9h-0.54a2.642,2.642,0,0,1-1.47-.45,2.144,2.144,0,0,1-.9-1.02,3.03,3.03,0,0,1-.21-1.05,3.707,3.707,0,0,1,.3-1.26l2.4-5.58h12.84l2.34,5.58a4.107,4.107,0,0,1,.3,1.47,2.455,2.455,0,0,1-.66,1.5,2.406,2.406,0,0,1-1.98.81h-0.54v0.6h22.74V45.9h-0.48q-3.12,0-5.04-3.3h0ZM239.82,21.54l5.04,12H234.6ZM255.6,2.34h0.48q4.262,0,8.52,4.68a55.13,55.13,0,0,1,6.78,9.48l-4.14,25.74a4.267,4.267,0,0,1-1.53,2.67,4.414,4.414,0,0,1-2.85.99H261.9v0.6h13.14V45.96h-0.9a2.1,2.1,0,0,1-1.65-.81,2.672,2.672,0,0,1-.69-1.77V43.14l3-20.16,14.58,24.96h0.54a9,9,0,0,1,.72-3.48,15.646,15.646,0,0,1,1.8-3.48L302.7,25.74l2.76,12.66q1.98,9.42,6.9,14.58a18.444,18.444,0,0,0,13.86,6.24,19.834,19.834,0,0,0,7.74-1.56v-0.6h-0.9a10.765,10.765,0,0,1-8.1-3.3q-4.02-4.2-6.06-15l-6.78-35.1h-0.54L293.76,30.24,283.02,12.78q-4.86-8.04-11.7-11.58a16.37,16.37,0,0,0-7.53-1.74,17.665,17.665,0,0,0-8.37,2.28ZM320.04,45.9v0.6h35.1l2.28-13.92h-0.6a15.514,15.514,0,0,1-4.74,7.98,11.548,11.548,0,0,1-7.74,2.88h-7.38V27.3h6.6a6.308,6.308,0,0,1,6.42,6.54v0.3h0.6V17.46h-0.6V17.7a6.314,6.314,0,0,1-6.48,6.6h-6.54V7.56h8.7a8.432,8.432,0,0,1,4.02,1.02q3.478,1.921,3.48,6.72v0.48h0.6V3.42a16.4,16.4,0,0,1-2.55.66,22.568,22.568,0,0,1-4.59.42H320.04V5.1h0.78a3.6,3.6,0,0,1,2.22.72,3.758,3.758,0,0,1,1.62,3.06V42.12a3.861,3.861,0,0,1-1.17,2.67,3.639,3.639,0,0,1-2.67,1.11h-0.78Z"/>
</svg>
