<svg xmlns="http://www.w3.org/2000/svg" width="349" height="63" viewBox="0 0 349 63">
  <defs>
    <style>
      .cls-1 {
        fill-rule: evenodd;
      }
    </style>
  </defs>
  <path id="New_GaMe" data-name="New GaMe" class="cls-1" d="M82.34,57.479a11.777,11.777,0,0,1-3.36.48,14.634,14.634,0,0,1-3.3-.36,9.994,9.994,0,0,1-3.06-1.17q-1.68-.931-2.64-1.5a17.387,17.387,0,0,1-2.52-1.98q-1.561-1.41-2.07-1.89t-3.33-3.48l-1.08-1.14V12.179a3.638,3.638,0,0,1,1.14-2.55,3.574,3.574,0,0,1,2.58-1.05h1.08v-0.6H43.82v0.6h1.14a3.575,3.575,0,0,1,2.58,1.05,3.706,3.706,0,0,1,1.14,2.61v21.48L24.02,8.219a40.42,40.42,0,0,0-6.6-5.4A24.574,24.574,0,0,0,12.77.569a15.032,15.032,0,0,0-5.25-.99,12.25,12.25,0,0,0-7.26,2.4l0.3,0.54a9.613,9.613,0,0,1,3.36-.6q6.961,0,16.2,9.84v33.96a3.491,3.491,0,0,1-1.08,2.61,3.572,3.572,0,0,1-2.58,1.05H15.32v0.6H37.28v-0.6H36.14a3.57,3.57,0,0,1-2.58-1.05,3.491,3.491,0,0,1-1.08-2.61V24.6l26.34,27.24a33.484,33.484,0,0,0,8.1,6.3,16.016,16.016,0,0,0,7.74,2.22,14.708,14.708,0,0,0,7.92-2.28Zm-17.22-8.1v0.6h35.1l2.28-13.92h-0.6a15.516,15.516,0,0,1-4.74,7.98,11.547,11.547,0,0,1-7.74,2.88H82.04V30.779h6.6a6.308,6.308,0,0,1,6.42,6.54v0.3h0.6V20.939h-0.6v0.24a6.314,6.314,0,0,1-6.48,6.6H82.04V11.039h8.7a8.432,8.432,0,0,1,4.02,1.02q3.479,1.921,3.48,6.72v0.48h0.6V6.9a16.412,16.412,0,0,1-2.55.66,22.562,22.562,0,0,1-4.59.42H65.12v0.6H65.9a3.6,3.6,0,0,1,2.22.72,3.759,3.759,0,0,1,1.62,3.06V45.6a3.863,3.863,0,0,1-1.17,2.67,3.639,3.639,0,0,1-2.67,1.11H65.12Zm94.86-41.4H146.9v0.6h0.54a2.456,2.456,0,0,1,1.44.42,1.921,1.921,0,0,1,.78,1.02,3.887,3.887,0,0,1,.18,1.11,6.718,6.718,0,0,1-.12,1.17l-4.8,16.86L132.98,7.079l-0.54-.06-10.38,21.6L115.52,12.3a3.915,3.915,0,0,1-.24-1.2,5.061,5.061,0,0,1,.06-0.84,2.337,2.337,0,0,1,2.4-1.68h0.54v-0.6H96.74v0.6h0.48a5.616,5.616,0,0,1,2.91.84A5.872,5.872,0,0,1,102.38,12L117.2,51.3h0.54a16.413,16.413,0,0,1,1.62-6.66l9.48-19.44L142.7,51.3h0.6a12.675,12.675,0,0,1-.06-1.38,16.645,16.645,0,0,1,.18-2.16l0.42-1.86c0.12-.519.219-0.939,0.3-1.26L154.34,12a4.8,4.8,0,0,1,1.38-1.98,5.654,5.654,0,0,1,3.78-1.44h0.48v-0.6Zm72.36,52.38-0.12-.6a18.242,18.242,0,0,1-3.9.42,13.613,13.613,0,0,1-3.96-.6q-6.84-2.16-9.96-9.72a18.284,18.284,0,0,1-1.38-6.9v-9.72a2.468,2.468,0,0,1,.72-2.04,3.153,3.153,0,0,1,2.22-.72h0.96v-0.6H196.76v0.6h0.9a3.367,3.367,0,0,1,2.31.72,2.432,2.432,0,0,1,.75,2.04V41.4a5.691,5.691,0,0,1-2.19,4.65,9.284,9.284,0,0,1-6,1.77,11.367,11.367,0,0,1-6.93-2.31A14.584,14.584,0,0,1,180.8,39a25.842,25.842,0,0,1-1.68-9.66q0-8.64,3.9-13.92a11.843,11.843,0,0,1,9.9-5.28,18.166,18.166,0,0,1,10.23,2.79,13.684,13.684,0,0,1,5.67,8.43h0.54l0.6-11.52a28.7,28.7,0,0,0-4.68-1.32,62.671,62.671,0,0,0-13.2-1.38q-11.762,0-18.96,5.97a19.517,19.517,0,0,0-7.2,15.81,19.861,19.861,0,0,0,7.05,15.87q7.049,6.03,18.39,6.03a36.834,36.834,0,0,0,10.98-1.62,21.531,21.531,0,0,0,16.92,13.32,23.2,23.2,0,0,0,2.88.18,25.711,25.711,0,0,0,10.2-2.34h0Zm21.84-14.28L235.16,6.539h-0.54q-0.242,2.22-3.42,8.94l-13.98,30.66a6.326,6.326,0,0,1-2.25,2.43,5.256,5.256,0,0,1-2.73.81H211.7v0.6h13.38v-0.6h-0.54a2.64,2.64,0,0,1-1.47-.45,2.134,2.134,0,0,1-.9-1.02,3.03,3.03,0,0,1-.21-1.05,3.707,3.707,0,0,1,.3-1.26l2.4-5.58H237.5l2.34,5.58a4.129,4.129,0,0,1,.3,1.47,2.461,2.461,0,0,1-.66,1.5,2.406,2.406,0,0,1-1.98.81h-0.54v0.6H259.7v-0.6h-0.48q-3.122,0-5.04-3.3h0ZM231.2,25.019l5.04,12H225.98Zm15.78-19.2h0.48q4.26,0,8.52,4.68a55.185,55.185,0,0,1,6.78,9.48l-4.14,25.74a4.267,4.267,0,0,1-1.53,2.67,4.416,4.416,0,0,1-2.85.99h-0.96v0.6h13.14v-0.54h-0.9a2.1,2.1,0,0,1-1.65-.81,2.667,2.667,0,0,1-.69-1.77v-0.24l3-20.16,14.58,24.96h0.54a8.977,8.977,0,0,1,.72-3.48,15.646,15.646,0,0,1,1.8-3.48l10.26-15.24,2.76,12.66q1.98,9.42,6.9,14.58A18.441,18.441,0,0,0,317.6,62.7a19.834,19.834,0,0,0,7.74-1.56v-0.6h-0.9a10.763,10.763,0,0,1-8.1-3.3q-4.022-4.2-6.06-15l-6.78-35.1h-0.54l-17.82,26.58L274.4,16.259q-4.86-8.04-11.7-11.58a16.37,16.37,0,0,0-7.53-1.74,17.659,17.659,0,0,0-8.37,2.28Zm64.44,43.56v0.6h35.1l2.28-13.92h-0.6a15.514,15.514,0,0,1-4.74,7.98,11.548,11.548,0,0,1-7.74,2.88h-7.38V30.779h6.6a6.308,6.308,0,0,1,6.42,6.54v0.3h0.6V20.939h-0.6v0.24a6.314,6.314,0,0,1-6.48,6.6h-6.54V11.039h8.7a8.431,8.431,0,0,1,4.02,1.02q3.478,1.921,3.48,6.72v0.48h0.6V6.9a16.4,16.4,0,0,1-2.55.66,22.568,22.568,0,0,1-4.59.42H311.42v0.6h0.78a3.6,3.6,0,0,1,2.22.72,3.758,3.758,0,0,1,1.62,3.06V45.6a3.861,3.861,0,0,1-1.17,2.67,3.639,3.639,0,0,1-2.67,1.11h-0.78Z"/>
</svg>
