<svg xmlns="http://www.w3.org/2000/svg" width="302" height="62" viewBox="0 0 302 62">
  <defs>
    <style>
      .cls-1 {
        fill-rule: evenodd;
      }
    </style>
  </defs>
  <path id="OPTIONS" class="cls-1" d="M22.24,24.52a19.612,19.612,0,0,1-.66-4.86,9.6,9.6,0,0,1,2.46-6.72,7.643,7.643,0,0,1,6-2.34,8.991,8.991,0,0,1,5.7,2.16,14.056,14.056,0,0,1,4.23,6.54,29.912,29.912,0,0,1,1.53,9.9q0,8.7-3.84,13.92a12.08,12.08,0,0,1-10.23,5.22q-6.39,0-10.23-5.76t-3.84-15.3a39.154,39.154,0,0,1,1.47-10.95,18.382,18.382,0,0,1,3.93-7.65l-0.36-.6A21.7,21.7,0,0,0,5.17,15.31,20.674,20.674,0,0,0,.1,29.32,19.456,19.456,0,0,0,7.66,45.28q7.56,6.061,19.86,6.06t19.77-6.03A19.648,19.648,0,0,0,54.76,29.2a20.046,20.046,0,0,0-3.48-11.88,25.7,25.7,0,0,0-3.75-4.2A18.172,18.172,0,0,0,43,10.09,38.973,38.973,0,0,0,38.05,8.2a15.871,15.871,0,0,0-3.87-.81q-1.32-.03-2.49-0.03a21.048,21.048,0,0,0-3.09.3,11.191,11.191,0,0,0-5.34,2.46,9.676,9.676,0,0,0-3.6,7.8,12.682,12.682,0,0,0,1.86,6.6h0.72Zm36.24,21.6a3.863,3.863,0,0,1-1.17,2.67,3.639,3.639,0,0,1-2.67,1.11H53.86v0.6H75.4V49.9H74.62a3.636,3.636,0,0,1-2.67-1.11,3.855,3.855,0,0,1-1.17-2.67V11.2l2.94-.42a9.9,9.9,0,0,1,1.5-.12,6.7,6.7,0,0,1,4.86,1.86q2.579,2.461,2.58,7.56a11.03,11.03,0,0,1-1.38,5.88Q79,29.44,76.06,29.44a3.128,3.128,0,0,1-2.76-1.2l-0.6.36a7.009,7.009,0,0,0,4.56,4.68,12.049,12.049,0,0,0,4.26.72,14.034,14.034,0,0,0,11.04-4.92,11.29,11.29,0,0,0,2.22-3.9,16.214,16.214,0,0,0,.78-5.25,11.944,11.944,0,0,0-1.38-5.61,9.967,9.967,0,0,0-3.36-3.78,19.369,19.369,0,0,0-4.89-2.25,26.446,26.446,0,0,0-7.59-.87q-1.561,0-3.39.18T65.98,8.98q-7.141,1.2-12.18,1.56l0.12,0.54Q54.7,11.021,55,11.02q3.42,0,3.48,3.48V46.12ZM94.24,23.56a11.313,11.313,0,0,1-1.86-5.85,5.555,5.555,0,0,1,2.58-4.65,9.215,9.215,0,0,1,5.58-1.62h11.22v34.8a3.847,3.847,0,0,1-3.84,3.66h-0.78v0.6h21.54V49.9H127.9a3.69,3.69,0,0,1-2.67-1.08,3.746,3.746,0,0,1-1.17-2.64V11.44h5.88a9.441,9.441,0,0,1,4.14.96q3.6,1.98,3.6,6.84v0.42l0.6,0.06V7.36a16.509,16.509,0,0,1-3.06.72,24.557,24.557,0,0,1-4.02.36H100.54a11.541,11.541,0,0,0-7.8,2.58,7.441,7.441,0,0,0-2.82,5.88q0,3.721,3.66,6.96Zm65.64,25.23a3.591,3.591,0,0,1-1.14-2.67V13.66a9.347,9.347,0,0,1,.48-2.88q0.9-2.34,4.26-2.88l-0.12-.6a87.416,87.416,0,0,1-11.22,1.08q-2.58.06-6.15,0.18t-4.23.18q-4.621.18-6.78,2.01a5.77,5.77,0,0,0-2.16,4.59,4.852,4.852,0,0,0,2.52,4.44,5.1,5.1,0,0,0,2.61.78,5.419,5.419,0,0,0,2.61-.72V19.48h-0.72a4.151,4.151,0,0,1-2.88-1.02,3.446,3.446,0,0,1-1.14-2.7V15.4q0.36-3.54,5.4-3.72l5.22-.18V46.12a3.861,3.861,0,0,1-1.17,2.67,3.639,3.639,0,0,1-2.67,1.11h-0.78v0.6h21.54V49.9h-0.78A3.734,3.734,0,0,1,159.88,48.79Zm24.3-24.27a19.593,19.593,0,0,1-.66-4.86,9.6,9.6,0,0,1,2.46-6.72,7.643,7.643,0,0,1,6-2.34,8.991,8.991,0,0,1,5.7,2.16,14.056,14.056,0,0,1,4.23,6.54,29.912,29.912,0,0,1,1.53,9.9q0,8.7-3.84,13.92a12.08,12.08,0,0,1-10.23,5.22q-6.39,0-10.23-5.76t-3.84-15.3a39.14,39.14,0,0,1,1.47-10.95,18.381,18.381,0,0,1,3.93-7.65l-0.36-.6a21.7,21.7,0,0,0-13.23,7.23,20.672,20.672,0,0,0-5.07,14.01,19.456,19.456,0,0,0,7.56,15.96q7.56,6.061,19.86,6.06t19.77-6.03A19.648,19.648,0,0,0,216.7,29.2a20.049,20.049,0,0,0-3.48-11.88,25.718,25.718,0,0,0-3.75-4.2,18.174,18.174,0,0,0-4.53-3.03,38.939,38.939,0,0,0-4.95-1.89,15.878,15.878,0,0,0-3.87-.81q-1.32-.03-2.49-0.03a21.052,21.052,0,0,0-3.09.3,11.189,11.189,0,0,0-5.34,2.46,9.676,9.676,0,0,0-3.6,7.8,12.685,12.685,0,0,0,1.86,6.6h0.72ZM281.98,58a11.775,11.775,0,0,1-3.36.48,14.634,14.634,0,0,1-3.3-.36,9.986,9.986,0,0,1-3.06-1.17q-1.68-.931-2.64-1.5a17.42,17.42,0,0,1-2.52-1.98q-1.562-1.41-2.07-1.89T261.7,48.1l-1.08-1.14V12.7a3.636,3.636,0,0,1,1.14-2.55,3.574,3.574,0,0,1,2.58-1.05h1.08V8.5H243.46V9.1h1.14a3.576,3.576,0,0,1,2.58,1.05,3.7,3.7,0,0,1,1.14,2.61V34.24L223.66,8.74a40.408,40.408,0,0,0-6.6-5.4,24.585,24.585,0,0,0-4.65-2.25A15.031,15.031,0,0,0,207.16.1a12.251,12.251,0,0,0-7.26,2.4l0.3,0.54a9.612,9.612,0,0,1,3.36-.6q6.962,0,16.2,9.84V46.24a3.491,3.491,0,0,1-1.08,2.61,3.572,3.572,0,0,1-2.58,1.05h-1.14v0.6h21.96V49.9h-1.14a3.571,3.571,0,0,1-2.58-1.05,3.491,3.491,0,0,1-1.08-2.61V25.12l26.34,27.24a33.484,33.484,0,0,0,8.1,6.3,16.013,16.013,0,0,0,7.74,2.22,14.706,14.706,0,0,0,7.92-2.28Zm17.4-25.08a16.692,16.692,0,0,0-5.88-5.22l-11.22-6.42a9.043,9.043,0,0,1-1.02-.54q-0.72-.419-1.62-0.93a7.74,7.74,0,0,1-1.8-1.47A3.134,3.134,0,0,1,277,15.7a4.648,4.648,0,0,1,2.34-3.66,11.506,11.506,0,0,1,6.18-1.38,10.322,10.322,0,0,1,6.6,2.04,6.488,6.488,0,0,1,2.58,5.34h0.6l1.26-9.78h-4.68q-6.12-.6-10.08-0.6-6.18,0-9.78,2.82-4.32,3.361-4.32,9.54,0,6.9,7.44,11.28l9.78,5.76a12.627,12.627,0,0,1,4.44,3.81,7.6,7.6,0,0,1,1.5,4.29,7.767,7.767,0,0,1-1.14,4.02,7.861,7.861,0,0,1-3.6,3.06,14.307,14.307,0,0,1-6.03,1.14,15.257,15.257,0,0,1-6.99-1.74,13.943,13.943,0,0,1-5.46-4.86,12.856,12.856,0,0,1-2.04-7.2,14.008,14.008,0,0,1,1.98-6.84l-0.54-.42a16.773,16.773,0,0,0-3.18,9.78,12.515,12.515,0,0,0,.54,3.48,14.546,14.546,0,0,0,9.06,9.66,22.308,22.308,0,0,0,8.4,1.5,23.375,23.375,0,0,0,8.64-1.56,19.239,19.239,0,0,0,6.48-4.02,15.3,15.3,0,0,0,3.66-5.37,15.1,15.1,0,0,0,1.14-5.49,12.975,12.975,0,0,0-2.4-7.38h0Z"/>
</svg>
