<svg xmlns="http://www.w3.org/2000/svg" width="166" height="74" viewBox="0 0 166 74">
  <defs>
    <style>
      .cls-1 {
        fill-rule: evenodd;
      }
    </style>
  </defs>
  <path id="QUiT" class="cls-1" d="M88.21,69.54a15.7,15.7,0,0,0,6.09-8.82l-0.42-.18a14.808,14.808,0,0,1-7.02,2.94,32.389,32.389,0,0,1-5.73.36,65.191,65.191,0,0,1-9.93-.96q-3.66-.54-5.7-0.93T53.65,59.67q-9.81-1.89-20.31-3.09A27.2,27.2,0,0,0,47.86,49.2a20.977,20.977,0,0,0,6.36-15.12,19.215,19.215,0,0,0-7.5-15.66q-7.5-6.06-19.8-6.06a37.415,37.415,0,0,0-11.1,1.56Q5.68,17.1,1.72,25.26A18.5,18.5,0,0,0-.2,33.54,16.867,16.867,0,0,0,4.87,46.05,23.96,23.96,0,0,0,17.68,52.5a23.99,23.99,0,0,0,4.2.42q7.02,0,8.82-4.92a9.779,9.779,0,0,0,.72-3.36q0-1.44-.06-2.16l-0.66.06q-0.42,4.68-3.72,6.54a8.04,8.04,0,0,1-4.14,1.02,8.326,8.326,0,0,1-7.86-4.74A23.03,23.03,0,0,1,12.7,34.44q0-9.6,4.05-14.37A12.375,12.375,0,0,1,26.5,15.3a12.576,12.576,0,0,1,7.38,2.22,14.367,14.367,0,0,1,4.5,4.92,25.713,25.713,0,0,1,3,12.48,24.55,24.55,0,0,1-2.1,10.38,17.531,17.531,0,0,1-4.44,6,18.436,18.436,0,0,1-12,4.44v0.6Q44.08,66.36,50.29,68.91a58.5,58.5,0,0,0,12.33,3.6,60.146,60.146,0,0,0,9.42,1.05q3.3,0,5.4-.18A21.724,21.724,0,0,0,88.21,69.54ZM102.07,1.29A12.6,12.6,0,0,0,97.3,4.92,19.686,19.686,0,0,0,92.98,17.7V40.68q0,5.94-3.21,9.27a10.883,10.883,0,0,1-8.19,3.33H81.4a10.612,10.612,0,0,1-8.37-3.57q-3.15-3.569-3.15-9.81V16.92a3.448,3.448,0,0,1,.42-1.38,3.029,3.029,0,0,1,2.76-1.44h0.96V13.5H53.44v0.6H54.4a3.242,3.242,0,0,1,2.25.84,2.714,2.714,0,0,1,.93,2.1V40.5a13.835,13.835,0,0,0,5.58,11.52q5.58,4.32,15.3,4.32t14.67-4.17Q98.08,48,98.2,40.08V17.7q0-7.32,2.76-11.76a10.63,10.63,0,0,1,8.16-5.1V0.24a11.922,11.922,0,0,0-1.68-.12A13.561,13.561,0,0,0,102.07,1.29ZM100.96,54.9v0.6H122.5V54.9h-0.78a3.734,3.734,0,0,1-2.7-1.11,3.591,3.591,0,0,1-1.14-2.67V17.82a3.748,3.748,0,0,1,1.17-2.64,3.69,3.69,0,0,1,2.67-1.08h0.78V13.5H100.96v0.6h0.78a3.693,3.693,0,0,1,2.67,1.08,3.756,3.756,0,0,1,1.17,2.64v33.3a3.861,3.861,0,0,1-1.17,2.67,3.639,3.639,0,0,1-2.67,1.11h-0.78Zm20.16-26.34a11.316,11.316,0,0,1-1.86-5.85,5.556,5.556,0,0,1,2.58-4.65,9.213,9.213,0,0,1,5.58-1.62h11.22v34.8a3.847,3.847,0,0,1-3.84,3.66h-0.78v0.6h21.54V54.9h-0.78a3.69,3.69,0,0,1-2.67-1.08,3.746,3.746,0,0,1-1.17-2.64V16.44h5.88a9.441,9.441,0,0,1,4.14.96q3.6,1.98,3.6,6.84v0.42l0.6,0.06V12.36a16.509,16.509,0,0,1-3.06.72,24.557,24.557,0,0,1-4.02.36H127.42a11.541,11.541,0,0,0-7.8,2.58,7.44,7.44,0,0,0-2.82,5.88q0,3.721,3.66,6.96Z"/>
</svg>
